<svg width="69" height="20" viewBox="0.020233154296875 0.1527099609375 68.95953369140625 19.694580078125" fill="none" xmlns="http://www.w3.org/2000/svg">
<path d="M0 15.3854V0.831454H3.07709V12.8484H9.31654V15.3854H0Z" fill="white"/>
<path d="M16.2293 15.5986C15.1255 15.5986 14.1708 15.3641 13.3654 14.8951C12.5648 14.4213 11.9465 13.7628 11.5107 12.9195C11.0748 12.0715 10.8569 11.0884 10.8569 9.97034C10.8569 8.84278 11.0748 7.85736 11.5107 7.01406C11.9465 6.16602 12.5648 5.50749 13.3654 5.03847C14.1708 4.5647 15.1255 4.32782 16.2293 4.32782C17.3332 4.32782 18.2855 4.5647 19.0861 5.03847C19.8915 5.50749 20.5121 6.16602 20.948 7.01406C21.3839 7.85736 21.6018 8.84278 21.6018 9.97034C21.6018 11.0884 21.3839 12.0715 20.948 12.9195C20.5121 13.7628 19.8915 14.4213 19.0861 14.8951C18.2855 15.3641 17.3332 15.5986 16.2293 15.5986ZM16.2435 13.2535C16.7457 13.2535 17.165 13.1114 17.5014 12.8271C17.8378 12.5381 18.0912 12.1449 18.2618 11.6475C18.4371 11.15 18.5247 10.5839 18.5247 9.94902C18.5247 9.31417 18.4371 8.74803 18.2618 8.25058C18.0912 7.75313 17.8378 7.3599 17.5014 7.07091C17.165 6.78191 16.7457 6.63742 16.2435 6.63742C15.7366 6.63742 15.3102 6.78191 14.9644 7.07091C14.6233 7.3599 14.3651 7.75313 14.1898 8.25058C14.0192 8.74803 13.934 9.31417 13.934 9.94902C13.934 10.5839 14.0192 11.15 14.1898 11.6475C14.3651 12.1449 14.6233 12.5381 14.9644 12.8271C15.3102 13.1114 15.7366 13.2535 16.2435 13.2535Z" fill="white"/>
<path d="M28.4879 19.7062C27.5073 19.7062 26.6663 19.5711 25.9652 19.3011C25.2687 19.0358 24.7144 18.6734 24.3022 18.2138C23.8901 17.7543 23.6224 17.2379 23.4992 16.6646L26.2992 16.288C26.3844 16.5059 26.5195 16.7096 26.7042 16.8991C26.889 17.0886 27.133 17.2402 27.4362 17.3539C27.7441 17.4724 28.1184 17.5316 28.559 17.5316C29.2175 17.5316 29.76 17.3705 30.1864 17.0484C30.6175 16.7309 30.8331 16.1979 30.8331 15.4494V13.4525H30.7052C30.5725 13.7557 30.3735 14.0423 30.1082 14.3124C29.8429 14.5824 29.5018 14.8027 29.0849 14.9733C28.668 15.1438 28.1705 15.2291 27.5925 15.2291C26.7729 15.2291 26.0267 15.0396 25.354 14.6606C24.686 14.2768 24.153 13.6917 23.7551 12.9053C23.3618 12.1141 23.1652 11.1145 23.1652 9.90638C23.1652 8.66986 23.3666 7.63705 23.7693 6.80797C24.172 5.97889 24.7073 5.35826 25.3753 4.94608C26.0481 4.53391 26.7848 4.32782 27.5854 4.32782C28.1966 4.32782 28.7082 4.43205 29.1204 4.64051C29.5326 4.84422 29.8642 5.10006 30.1153 5.408C30.3711 5.71121 30.5678 6.00968 30.7052 6.30341H30.8189V4.46995H33.8249V15.492C33.8249 16.4206 33.5975 17.1976 33.1427 17.823C32.6878 18.4483 32.0577 18.9173 31.2523 19.23C30.4517 19.5474 29.5302 19.7062 28.4879 19.7062ZM28.5519 12.955C29.0399 12.955 29.4521 12.8342 29.7884 12.5926C30.1295 12.3463 30.3901 11.9957 30.5701 11.5409C30.7549 11.0813 30.8473 10.5317 30.8473 9.89217C30.8473 9.25259 30.7573 8.69828 30.5772 8.22926C30.3972 7.7555 30.1366 7.38833 29.7955 7.12776C29.4544 6.86719 29.0399 6.73691 28.5519 6.73691C28.0544 6.73691 27.6352 6.87193 27.2941 7.14197C26.953 7.40728 26.6948 7.77681 26.5195 8.25058C26.3442 8.72434 26.2565 9.27154 26.2565 9.89217C26.2565 10.5223 26.3442 11.0671 26.5195 11.5266C26.6995 11.9815 26.9577 12.3344 27.2941 12.5855C27.6352 12.8319 28.0544 12.955 28.5519 12.955Z" fill="white"/>
<path d="M40.8656 15.3854V4.46995H43.8929V15.3854H40.8656ZM42.3864 3.06288C41.9363 3.06288 41.5502 2.91364 41.228 2.61517C40.9106 2.31196 40.7519 1.94953 40.7519 1.52788C40.7519 1.11097 40.9106 0.753283 41.228 0.454813C41.5502 0.151604 41.9363 0 42.3864 0C42.8364 0 43.2202 0.151604 43.5376 0.454813C43.8598 0.753283 44.0208 1.11097 44.0208 1.52788C44.0208 1.94953 43.8598 2.31196 43.5376 2.61517C43.2202 2.91364 42.8364 3.06288 42.3864 3.06288Z" fill="white"/>
<path d="M49.3453 9.07493V15.3854H46.318V4.46995H49.2032V6.3958H49.3311C49.5728 5.76095 49.9778 5.25877 50.5463 4.88923C51.1148 4.51496 51.8042 4.32782 52.6143 4.32782C53.3723 4.32782 54.0332 4.49364 54.597 4.82527C55.1608 5.15691 55.599 5.63067 55.9117 6.24656C56.2244 6.85772 56.3807 7.58731 56.3807 8.43535V15.3854H53.3534V8.97543C53.3581 8.30743 53.1876 7.78629 52.8417 7.41202C52.4959 7.03301 52.0197 6.8435 51.4133 6.8435C51.0059 6.8435 50.6458 6.93115 50.3331 7.10644C50.0252 7.28173 49.7836 7.53757 49.6083 7.87394C49.4377 8.20557 49.3501 8.6059 49.3453 9.07493Z" fill="white"/>
<path d="M62.789 15.5631C61.9599 15.5631 61.209 15.3499 60.5362 14.9235C59.8682 14.4924 59.3376 13.8599 58.9444 13.0261C58.5559 12.1875 58.3616 11.1595 58.3616 9.94191C58.3616 8.69118 58.563 7.65127 58.9657 6.82218C59.3684 5.98836 59.9037 5.36536 60.5717 4.95319C61.2445 4.53628 61.9812 4.32782 62.7818 4.32782C63.393 4.32782 63.9023 4.43205 64.3097 4.64051C64.7219 4.84422 65.0535 5.10006 65.3046 5.408C65.5605 5.71121 65.7547 6.00968 65.8874 6.30341H65.9798V0.831454H69V15.3854H66.0153V13.6373H65.8874C65.7452 13.9405 65.5439 14.2413 65.2833 14.5398C65.0275 14.8335 64.6935 15.0775 64.2813 15.2717C63.8739 15.466 63.3764 15.5631 62.789 15.5631ZM63.7483 13.154C64.2363 13.154 64.6485 13.0214 64.9848 12.7561C65.326 12.486 65.5865 12.1094 65.7666 11.6261C65.9513 11.1429 66.0437 10.5768 66.0437 9.9277C66.0437 9.27864 65.9537 8.71486 65.7737 8.23636C65.5936 7.75786 65.3331 7.38833 64.992 7.12776C64.6508 6.86719 64.2363 6.73691 63.7483 6.73691C63.2509 6.73691 62.8316 6.87193 62.4905 7.14197C62.1494 7.41202 61.8912 7.78629 61.7159 8.26479C61.5406 8.74329 61.4529 9.29759 61.4529 9.9277C61.4529 10.5625 61.5406 11.1239 61.7159 11.6119C61.8959 12.0952 62.1541 12.4742 62.4905 12.749C62.8316 13.019 63.2509 13.154 63.7483 13.154Z" fill="white"/>
</svg>
